<svg xmlns="http://www.w3.org/2000/svg" aria-hidden="true" style="position:absolute;width:0;height:0;overflow:hidden"><defs><symbol id="icon-dynamic" viewBox="0 0 32 32"><path d="M5.333 3.6a.4.4 0 0 0-.4.4v9.333a.4.4 0 1 0 .8 0V4a.4.4 0 0 0-.4-.4zM16 3.6a.4.4 0 0 0-.4.4v6.267H12a.4.4 0 1 0 0 .8h8a.4.4 0 1 0 0-.8h-3.6V4a.4.4 0 0 0-.4-.4zm10.667 0a.4.4 0 0 0-.4.4v12a.4.4 0 1 0 .8 0V4a.4.4 0 0 0-.4-.4zM16 15.6a.4.4 0 0 0-.4.4v12a.4.4 0 1 0 .8 0V16a.4.4 0 0 0-.4-.4zM.933 18.667a.4.4 0 0 0 .4.4h3.6V28a.4.4 0 1 0 .8 0v-8.933h3.6a.4.4 0 1 0 0-.8h-8a.4.4 0 0 0-.4.4zm21.334 2.666a.4.4 0 0 0 .4.4h3.6V28a.4.4 0 1 0 .8 0v-6.267h3.6a.4.4 0 1 0 0-.8h-8a.4.4 0 0 0-.4.4z"/></symbol><symbol id="icon-technology" viewBox="0 0 32 32"><path d="M12 .933a.4.4 0 0 1 .4.4v3.6h7.2v-3.6a.4.4 0 1 1 .8 0v3.6H24A3.067 3.067 0 0 1 27.067 8v3.6h3.6a.4.4 0 1 1 0 .8h-3.6v5.867h3.6a.4.4 0 1 1 0 .8h-3.6V24A3.067 3.067 0 0 1 24 27.067h-3.6v3.6a.4.4 0 1 1-.8 0v-3.6h-7.2v3.6a.4.4 0 1 1-.8 0v-3.6H8A3.067 3.067 0 0 1 4.933 24v-4.933h-3.6a.4.4 0 1 1 0-.8h3.6V12.4h-3.6a.4.4 0 1 1 0-.8h3.6V8A3.067 3.067 0 0 1 8 4.933h3.6v-3.6a.4.4 0 0 1 .4-.4zm-4 4.8A2.267 2.267 0 0 0 5.733 8v16A2.267 2.267 0 0 0 8 26.267h16A2.267 2.267 0 0 0 26.267 24V8A2.267 2.267 0 0 0 24 5.733H8zM11.6 12a.4.4 0 0 1 .4-.4h8a.4.4 0 0 1 .4.4v8a.4.4 0 0 1-.4.4h-8a.4.4 0 0 1-.4-.4v-8zm.8.4v7.2h7.2v-7.2h-7.2z"/></symbol><symbol id="icon-time" viewBox="0 0 32 32"><path d="M16 3.067C8.857 3.067 3.067 8.857 3.067 16S8.857 28.933 16 28.933 28.933 23.143 28.933 16 23.143 3.067 16 3.067zM2.267 16C2.267 8.415 8.416 2.267 16 2.267S29.733 8.416 29.733 16 23.584 29.733 16 29.733C8.415 29.733 2.267 23.584 2.267 16zM16 7.6a.4.4 0 0 0-.4.4v8a.4.4 0 0 0 .221.358l5.333 2.667a.4.4 0 1 0 .358-.716L16.4 15.753V8a.4.4 0 0 0-.4-.4z"/></symbol><symbol id="icon-burger-menu" viewBox="0 0 32 32"><path d="M4 8h24v2.667H4V8zm0 6.667h24v2.667H4v-2.667zm0 6.666h24V24H4v-2.667z"/></symbol><symbol id="icon-facebook" viewBox="0 0 32 32"><path d="M13.973 3.973a7.58 7.58 0 0 1 5.361-2.22h4c.505 0 .914.409.914.914V8a.914.914 0 0 1-.914.914h-4a.422.422 0 0 0-.419.419v3.086h4.419a.915.915 0 0 1 .887 1.136l-1.333 5.333a.915.915 0 0 1-.887.693h-3.086v9.752a.914.914 0 0 1-.914.914h-5.333a.914.914 0 0 1-.914-.914v-9.752H8.668a.914.914 0 0 1-.914-.914v-5.333c0-.505.409-.914.914-.914h3.086V9.334c0-2.011.799-3.939 2.22-5.361zm5.36-.392a5.752 5.752 0 0 0-5.753 5.753v4a.914.914 0 0 1-.914.914H9.58v3.505h3.086c.505 0 .914.409.914.914v9.752h3.505v-9.752c0-.505.409-.914.914-.914h3.286l.876-3.505h-4.162a.914.914 0 0 1-.914-.914v-4a2.248 2.248 0 0 1 2.247-2.247h3.086V3.582h-3.086z"/></symbol><symbol id="icon-ig" viewBox="0 0 32 32"><path d="M9.889 4.296a5.593 5.593 0 0 0-5.593 5.593v12.963a5.593 5.593 0 0 0 5.593 5.593h12.963a5.593 5.593 0 0 0 5.593-5.593V9.889a5.593 5.593 0 0 0-5.593-5.593H9.889zm-7.37 5.593a7.37 7.37 0 0 1 7.37-7.37h12.963c4.07 0 7.37 3.3 7.37 7.37v12.963a7.37 7.37 0 0 1-7.37 7.37H9.889a7.37 7.37 0 0 1-7.37-7.37V9.889zm20.092-.648c0 .491.398.889.889.889h.013a.889.889 0 1 0 0-1.778H23.5a.889.889 0 0 0-.889.889zm-5.554 2.823a4.294 4.294 0 0 0-3.668 7.287 4.299 4.299 0 0 0 4.969.8 4.296 4.296 0 0 0-1.302-8.088zm-3.428-1.141a6.08 6.08 0 0 1 7.092 1.096 6.074 6.074 0 1 1-7.094-1.097z"/></symbol><symbol id="icon-mail" viewBox="0 0 32 32"><path d="M7.023 5.333H25.12a4.357 4.357 0 0 1 4.35 4.11l.007.247v12.735a4.357 4.357 0 0 1-4.11 4.35l-.247.007H7.023a4.355 4.355 0 0 1-4.35-4.11l-.007-.247V9.69a4.357 4.357 0 0 1 4.11-4.35l.247-.007zm20.444 7.203-10.925 5.751a1.008 1.008 0 0 1-.808.058l-.129-.056-10.927-5.751v9.888a2.344 2.344 0 0 0 2.153 2.338l.193.008h18.097a2.35 2.35 0 0 0 2.338-2.155l.008-.192v-9.889zm-2.346-5.192H7.024a2.344 2.344 0 0 0-2.338 2.153l-.008.193v.575l11.395 5.998 11.395-5.999V9.69a2.345 2.345 0 0 0-2.155-2.337l-.192-.008z"/></symbol><symbol id="icon-phone" viewBox="0 0 32 32"><path d="M6.94 1.831c1.486.066 3.025.302 3.986.516.471.105.798.428 1.005.692.219.281.402.623.556.972.309.701.568 1.582.775 2.441.409 1.698.666 3.536.666 4.103 0 .339-.125.624-.245.828a3.143 3.143 0 0 1-.434.558c-.295.311-.672.625-.997.896l-.024.02c-.355.296-.652.545-.864.769a2.655 2.655 0 0 0-.083.092l.079.102c.211.264.528.615.929 1.025a46.878 46.878 0 0 0 2.975 2.753c1.102.939 2.192 1.784 3.017 2.305.216.136.397.24.544.314a5.418 5.418 0 0 1 1.101-1.329c1.17-1.038 2.51-.938 3.648-.553.561.189 1.114.459 1.626.727.219.115.423.224.62.331.291.157.568.306.86.452 1.146.573 2.031 1.058 2.673 1.517.638.457 1.144.964 1.379 1.622.24.672.136 1.329-.052 1.936-.151.486-.393 1.045-.657 1.654l-.169.392c-1.129 2.635-3.914 3.698-6.556 3.025C8.157 26.136 2.299 12.461 1.139 5.213l-.011-.072v-.073c0-.7.512-1.745 1.779-2.589.523-.349 1.209-.51 1.86-.59.675-.083 1.43-.091 2.174-.058zm12.255 18.538-.008-.001.008.001zm-8.03-6.491.002-.004-.002.004zM4.99 3.704c-.564.069-.906.188-1.069.296-.45.3-.698.59-.83.8-.077.123-.11.211-.124.255C4.116 11.956 9.69 24.638 23.75 28.218c1.909.486 3.703-.293 4.424-1.974l.187-.434c.262-.606.454-1.051.573-1.435.14-.45.122-.651.076-.778-.051-.142-.203-.378-.721-.75-.515-.369-1.287-.799-2.427-1.368a37.324 37.324 0 0 1-.955-.502 52.1 52.1 0 0 0-.555-.296c-.491-.257-.942-.472-1.364-.614-.828-.28-1.374-.233-1.85.189-.456.404-.756.846-.858 1.152-.14.421-.481.683-.865.761a1.637 1.637 0 0 1-.789-.059c-.406-.122-.869-.375-1.323-.661-.933-.589-2.1-1.499-3.226-2.459a48.462 48.462 0 0 1-3.097-2.867c-.42-.43-.785-.83-1.051-1.163a4.47 4.47 0 0 1-.348-.49 1.89 1.89 0 0 1-.137-.274 1.204 1.204 0 0 1-.089-.442c0-.339.125-.624.245-.828.123-.209.281-.397.434-.558.295-.311.672-.625.997-.896l.024-.02c.355-.296.652-.545.864-.769.09-.095.145-.166.175-.212-.026-.48-.239-2.041-.613-3.591-.197-.818-.426-1.576-.671-2.131a2.876 2.876 0 0 0-.323-.584.785.785 0 0 0-.043-.051 23.387 23.387 0 0 0-3.589-.456c-.685-.03-1.33-.02-1.869.046zm5.43.384.003.002-.003-.002zm1.7 6.342-.002.004.002-.004z"/></symbol><symbol id="icon-telegram" viewBox="0 0 32 32"><path d="M29.98 2.02a.913.913 0 0 1 .216.949l-9.333 26.667a.913.913 0 0 1-1.699.069l-5.191-11.679-11.679-5.191a.914.914 0 0 1 .07-1.699l26.667-9.333a.914.914 0 0 1 .948.216zM15.757 17.536l4.142 9.319 7.248-20.708-11.39 11.39zM25.854 4.853 5.146 12.101l9.319 4.142 11.39-11.39z"/></symbol><symbol id="icon-twitter" viewBox="0 0 32 32"><path d="M19.456 4.44a6.697 6.697 0 0 1 7.027 1.428 13.258 13.258 0 0 0 3.3-1.692.888.888 0 0 1 1.376.937 10.9 10.9 0 0 1-2.614 4.849c.03.256.046.513.047.771v.003c0 7.765-3.731 13.423-9.059 16.259-5.307 2.824-12.108 2.803-18.187-.575a.889.889 0 0 1 .467-1.665 14.2 14.2 0 0 0 7.193-1.631c-2.242-1.248-3.798-2.772-4.84-4.418-1.255-1.982-1.732-4.085-1.818-5.985-.086-1.896.215-3.609.534-4.84a16.225 16.225 0 0 1 .61-1.883l.047-.113.014-.032.004-.01.001-.003.001-.001.813.36-.812-.361a.888.888 0 0 1 1.54-.15 12.93 12.93 0 0 0 10.05 5.488v-.395a6.7 6.7 0 0 1 4.308-6.34zM4.684 8.025a15.43 15.43 0 0 0-.081.3c-.289 1.118-.555 2.646-.479 4.315.076 1.665.49 3.45 1.544 5.114 1.05 1.659 2.77 3.251 5.545 4.484a.887.887 0 0 1 .138 1.547 15.984 15.984 0 0 1-6.01 2.481c4.676 1.611 9.49 1.217 13.357-.841 4.718-2.511 8.116-7.547 8.117-14.688a4.89 4.89 0 0 0-.088-.911.89.89 0 0 1 .249-.8 9.147 9.147 0 0 0 1.581-2.086c-.67.316-1.363.582-2.074.796a.888.888 0 0 1-.927-.268A4.923 4.923 0 0 0 20.091 6.1a4.918 4.918 0 0 0-3.165 4.661v1.308a.89.89 0 0 1-.866.889A14.713 14.713 0 0 1 4.683 8.024z"/></symbol></defs></svg>